<?xml version="1.0" encoding="utf-8"?>
<!-- Generator: Adobe Illustrator 19.2.1, SVG Export Plug-In . SVG Version: 6.00 Build 0)  -->
<svg version="1.1" id="Layer_1" xmlns="http://www.w3.org/2000/svg" xmlns:xlink="http://www.w3.org/1999/xlink" x="0px" y="0px"
	 viewBox="0 0 50 50" style="enable-background:new 0 0 50 50;" xml:space="preserve">
<style type="text/css">
	.st0{fill:none;stroke:#FFFFFF;stroke-width:0.8412;stroke-linecap:round;stroke-miterlimit:10;}
	.st1{fill:none;stroke:#FFFFFF;stroke-miterlimit:10;}
	.st2{fill:none;stroke:#FFFFFF;stroke-width:0.75;stroke-miterlimit:10;}
	.st3{fill:none;stroke:#FFFFFF;stroke-width:0.7404;stroke-linecap:round;stroke-miterlimit:10;}
	.st4{opacity:0.6;fill:#FFFFFF;}
	.st5{fill:none;stroke:#FFFFFF;stroke-width:1.0096;stroke-miterlimit:10;}
</style>
<polyline class="st0" points="7.1,26.6 25,12.7 42.8,26.6 "/>
<rect x="14.5" y="26.6" class="st1" width="4.5" height="4.5"/>
<rect x="31" y="26.6" class="st1" width="4.5" height="4.5"/>
<circle class="st2" cx="40" cy="14.8" r="4.2"/>
<path class="st3" d="M37.6,11.1V8.8c0-1.3,1.1-2.4,2.4-2.4h0c1.3,0,2.4,1.1,2.4,2.4v2.3"/>
<path class="st4" d="M40,11.7c-1.7,0-3.1,1.4-3.1,3.1c0,1.7,1.4,3.1,3.1,3.1c1.7,0,3.1-1.4,3.1-3.1C43.1,13.1,41.7,11.7,40,11.7z
	 M40.5,14.9v1.4h-1v-1.4c-0.2-0.2-0.4-0.4-0.4-0.7c0-0.5,0.4-0.9,0.9-0.9c0.5,0,0.9,0.4,0.9,0.9C40.9,14.4,40.7,14.7,40.5,14.9z"/>
<polyline class="st5" points="11.3,23.3 11.3,43.1 21.9,43.1 21.9,33.4 28.1,33.4 28.1,43.1 38.6,43.1 38.6,23.3 "/>
</svg>
