<?xml version="1.0" encoding="utf-8"?>
<!-- Generator: Adobe Illustrator 19.2.1, SVG Export Plug-In . SVG Version: 6.00 Build 0)  -->
<svg version="1.1" id="Layer_1" xmlns="http://www.w3.org/2000/svg" xmlns:xlink="http://www.w3.org/1999/xlink" x="0px" y="0px"
	 viewBox="0 0 50 50" style="enable-background:new 0 0 50 50;" xml:space="preserve">
<style type="text/css">
	.st0{fill:none;stroke:#FFFFFF;stroke-width:0.9076;stroke-linecap:round;stroke-miterlimit:10;}
	.st1{fill:none;stroke:#FFFFFF;stroke-linecap:round;stroke-miterlimit:10;}
	.st2{opacity:0.15;fill:#FFFFFF;}
	.st3{fill:#FFFFFF;}
</style>
<circle class="st0" cx="26.7" cy="8.9" r="4.1"/>
<line class="st1" x1="4.8" y1="15.8" x2="24.3" y2="15.8"/>
<polyline class="st1" points="33.8,23.6 40,19.9 30.1,15.8 "/>
<polygon class="st1" points="27.8,30.2 22.9,30.2 25,15.8 30,15.8 "/>
<polygon class="st2" points="27.8,30.2 22.9,30.2 25,15.8 30,15.8 "/>
<polyline class="st1" points="22.9,30.2 15.5,35.6 16.5,44.9 "/>
<polyline class="st1" points="27.9,30.2 31.2,39.2 38.3,44.9 "/>
<g>
	<g>
		<path class="st3" d="M23.2,9.2c2.2-0.9,4.7-2.2,7.2-2.4c2.6-0.2,4.3,2.2,6.9,2c3.2-0.2,5.3-3,5-6.1c0-0.6-1.1-0.6-1,0
			c0.2,2.6-1.5,5.2-4.4,5.1c-2-0.1-3.1-1.6-4.9-2c-3-0.6-6.4,1.4-9,2.4C22.3,8.5,22.6,9.4,23.2,9.2L23.2,9.2z"/>
	</g>
</g>
<g>
	<g>
		<path class="st3" d="M30.4,5.9c0.9-1,1.9-2.2,3.8-0.6c0.6,0.5,0.8,1.3,1.2,1.9c0.5,0.8,0.9,1.3,1.7,1.7c1.2,0.7,2.5,1,3.7,0.1
			c0.4-0.3-0.2-0.8-0.5-0.5c-2.1,1.7-4-1.4-4.8-2.7c-0.4-0.7-1-1.5-1.8-1.8c-1.6-0.8-2.8,0.3-3.8,1.4C29.6,5.8,30.1,6.3,30.4,5.9
			L30.4,5.9z"/>
	</g>
</g>
</svg>
