<?xml version="1.0" encoding="utf-8"?>
<!-- Generator: Adobe Illustrator 19.2.1, SVG Export Plug-In . SVG Version: 6.00 Build 0)  -->
<svg version="1.1" id="Layer_1" xmlns="http://www.w3.org/2000/svg" xmlns:xlink="http://www.w3.org/1999/xlink" x="0px" y="0px"
	 viewBox="0 0 50 50" style="enable-background:new 0 0 50 50;" xml:space="preserve">
<style type="text/css">
	.st0{fill:none;stroke:#FFFFFF;stroke-width:1.1897;stroke-miterlimit:10;}
	.st1{fill:none;stroke:#FFFFFF;stroke-width:1.5;stroke-miterlimit:10;}
	.st2{opacity:0.5;fill:none;stroke:#FFFFFF;stroke-miterlimit:10;}
	.st3{opacity:0.5;fill:none;stroke:#FFFFFF;stroke-width:0.7179;stroke-miterlimit:10;}
</style>
<image style="overflow:visible;" width="350" height="370" xlink:href="F9F028F0.jpg"  transform="matrix(0.7226 -0.6912 0.6912 0.7226 50 -137.7208)">
</image>
<path class="st0" d="M17-74V-77c0-1.1,0.9-2.1,2.1-2.1H22"/>
<rect x="17.8" y="-60.3" class="st1" width="15" height="44.3"/>
<line class="st2" x1="29.7" y1="-56" x2="29.7" y2="-16"/>
<path class="st1" d="M22.8-81c0,4.4-3.5,7.9-7.9,7.9v12.9h20.8V-81H22.8z"/>
<circle class="st2" cx="29.7" cy="-75.5" r="2.3"/>
<line class="st2" x1="14.9" y1="-62.7" x2="35.6" y2="-62.7"/>
<path class="st3" d="M41.2-78.7c1,0.3,1.7,1.5,1.7,2.9c0,1.3-0.6,2.4-1.5,2.8"/>
<path class="st3" d="M46.9-78.7c1,0.3,1.7,1.5,1.7,2.9c0,1.3-0.6,2.4-1.5,2.8"/>
<path class="st3" d="M46.9-72.9c1,0.3,1.7,1.5,1.7,2.9c0,1.3-0.6,2.4-1.5,2.8"/>
<path class="st3" d="M46.9-84.4c1,0.3,1.7,1.5,1.7,2.9c0,1.3-0.6,2.4-1.5,2.8"/>
<path class="st3" d="M53.3-82.2c1,0.3,1.7,1.5,1.7,2.9c0,1.3-0.6,2.4-1.5,2.8"/>
<path class="st3" d="M53.3-76.5c1,0.3,1.7,1.5,1.7,2.9c0,1.3-0.6,2.4-1.5,2.8"/>
<path class="st3" d="M53.3-87.9c1,0.3,1.7,1.5,1.7,2.9c0,1.3-0.6,2.4-1.5,2.8"/>
<path class="st3" d="M59.4-71c1,0.3,1.7,1.5,1.7,2.9c0,1.3-0.6,2.4-1.5,2.8"/>
<path class="st3" d="M61.8-84.7c1,0.3,1.7,1.5,1.7,2.9c0,1.3-0.6,2.4-1.5,2.8"/>
<path class="st3" d="M59.4-76.7c1,0.3,1.7,1.5,1.7,2.9c0,1.3-0.6,2.4-1.5,2.8"/>
</svg>
