<?xml version="1.0" encoding="utf-8"?>
<!-- Generator: Adobe Illustrator 19.2.1, SVG Export Plug-In . SVG Version: 6.00 Build 0)  -->
<svg version="1.1" id="Layer_1" xmlns="http://www.w3.org/2000/svg" xmlns:xlink="http://www.w3.org/1999/xlink" x="0px" y="0px"
	 viewBox="0 0 50 50" style="enable-background:new 0 0 50 50;" xml:space="preserve">
<style type="text/css">
	.st0{opacity:0.15;fill:none;stroke:#FFFFFF;stroke-width:0.796;stroke-miterlimit:10;}
	.st1{opacity:0.4;fill:#FFFFFF;}
	.st2{fill:none;stroke:#FFFFFF;stroke-width:0.796;stroke-miterlimit:10;}
	.st3{fill:none;stroke:#FFFFFF;stroke-width:0.398;stroke-miterlimit:10;}
	.st4{opacity:0.4;fill:none;stroke:#FFFFFF;stroke-width:0.796;stroke-linecap:round;stroke-miterlimit:10;}
	.st5{fill:#FFFFFF;stroke:#000000;stroke-width:1.2357;stroke-miterlimit:10;}
	.st6{fill:#FFFFFF;}
</style>
<path class="st0" d="M32.7,8.8c-2-2-4.2-3-5-2.2L22.3,12c-0.8,0.8,0.2,3,2.2,5s4.2,3,5,2.2l5.4-5.4C35.7,13,34.7,10.7,32.7,8.8z"/>
<rect x="6.1" y="32.9" transform="matrix(0.7071 0.7071 -0.7071 0.7071 26.4552 5.2752)" class="st1" width="1.6" height="3.4"/>
<path class="st2" d="M32.7,8.8c-2-2-4.2-3-5-2.2L22.3,12c-0.8,0.8,0.2,3,2.2,5s4.2,3,5,2.2l5.4-5.4C35.7,13,34.7,10.7,32.7,8.8z"/>
<path class="st2" d="M24.5,17c-2-2-3-4.2-2.2-5l0.2-0.2h0L5.9,28.4c-0.8,0.8,0.2,3,2.2,5c2,2,4.2,3,5,2.2L29.7,19v0l-0.2,0.2
	C28.7,20,26.5,19,24.5,17z"/>
<ellipse transform="matrix(0.7071 -0.7071 0.7071 0.7071 1.9756 25.1156)" class="st2" cx="31.3" cy="10.2" rx="2" ry="5.1"/>
<ellipse transform="matrix(0.7071 -0.7071 0.7071 0.7071 -1.8998 25.4537)" class="st3" cx="29.8" cy="15" rx="0.7" ry="0.7"/>
<line class="st4" x1="22.8" y1="21.6" x2="9.8" y2="34.5"/>
<ellipse transform="matrix(0.7071 -0.7071 0.7071 0.7071 -25.6157 13.6598)" class="st3" cx="3.7" cy="37.8" rx="2.8" ry="2.8"/>
<polygon class="st5" points="80.9,-13.4 80.9,-13.4 80.9,-13.4 "/>
<g>
	<g>
		<path class="st6" d="M31.4,24.1c1.4,0.3,2.7-0.2,3.7-1.3c0.8-1,1.6-2.3,1-3.6c-0.2-0.5-0.9-0.1-0.7,0.4c0.4,0.9-0.4,2.2-1.1,2.8
			c-0.7,0.7-1.7,1.1-2.7,0.9C31.1,23.2,30.9,23.9,31.4,24.1L31.4,24.1z"/>
	</g>
</g>
<g>
	<g>
		<path class="st6" d="M27.8,30.5c1.1,0.4,2.2,0.5,3.4,0c0.9-0.4,1.2-1.5,1.9-1.9c0.7-0.4,1.8-0.1,2.7-0.3c1.1-0.3,2.2-1,2.9-1.8
			c0.8-0.9,0.6-1.7,1-2.6c0.3-0.8,1.1-1.2,1.7-2c1.3-1.9,0.8-4.1-0.7-5.7c-0.4-0.4-0.9,0.2-0.6,0.6c1.9,2,1.3,4.9-1.1,6
			c-0.2,0.1-0.2,0.3-0.2,0.4c-0.3,1-0.6,2-0.9,3c-0.5,0.5-1.1,0.9-1.7,1.1c-1.1,0.4-1.9,0.6-3.1,0.2c-0.2-0.1-0.4,0.1-0.5,0.3
			c-0.7,1.9-2.7,2.7-4.5,2C27.5,29.6,27.3,30.4,27.8,30.5L27.8,30.5z"/>
	</g>
</g>
<g>
	<g>
		<path class="st6" d="M27.7,38.9c3.6,1.4,11-1.5,9-6.3c-0.2,0.2-0.4,0.4-0.5,0.5c4.1,1.8,8.1-1.7,6.8-6c-0.1-0.5-0.9-0.3-0.8,0.2
			c1.1,3.6-2.1,6.6-5.7,5.1c-0.4-0.2-0.7,0.2-0.5,0.5c0.9,2.2-1.5,4.1-3,4.9c-1.7,0.8-3.3,0.9-5,0.2C27.5,38,27.2,38.7,27.7,38.9
			L27.7,38.9z"/>
	</g>
</g>
<g>
	<g>
		<path class="st6" d="M44.5,25.6c5,1.4,6.5-6.6,3.4-9.2c-0.4-0.3-1,0.2-0.6,0.6c2.5,2.1,1.7,9.1-2.6,7.9
			C44.2,24.7,44,25.5,44.5,25.6L44.5,25.6z"/>
	</g>
</g>
</svg>
