<?xml version="1.0" encoding="utf-8"?>
<!-- Generator: Adobe Illustrator 19.2.1, SVG Export Plug-In . SVG Version: 6.00 Build 0)  -->
<svg version="1.1" id="Layer_1" xmlns="http://www.w3.org/2000/svg" xmlns:xlink="http://www.w3.org/1999/xlink" x="0px" y="0px"
	 viewBox="0 0 50 50" style="enable-background:new 0 0 50 50;" xml:space="preserve">
<style type="text/css">
	.st0{opacity:0.5;fill:none;stroke:#FFFFFF;stroke-width:0.6209;stroke-miterlimit:10;}
	.st1{fill:none;stroke:#FFFFFF;stroke-width:1.0619;stroke-miterlimit:10;}
	.st2{opacity:0.5;fill:none;stroke:#FFFFFF;stroke-width:0.7079;stroke-miterlimit:10;}
	.st3{fill:none;stroke:#FFFFFF;stroke-width:0.9314;stroke-miterlimit:10;}
	.st4{opacity:0.5;fill:none;stroke:#FFFFFF;stroke-width:0.5116;stroke-miterlimit:10;}
	.st5{fill:none;stroke:#FFFFFF;stroke-width:0.5239;stroke-miterlimit:10;}
	.st6{fill:#FFFFFF;}
</style>
<path class="st0" d="M5.2,9.7V7.8c0-0.7,0.6-1.3,1.3-1.3h1.8"/>
<rect x="4.9" y="18.2" class="st1" width="10.9" height="30.6"/>
<line class="st2" x1="13.6" y1="21.1" x2="13.6" y2="48.8"/>
<path class="st3" d="M8.8,5.3c0,2.7-2.2,4.9-4.9,4.9v8h12.9V5.3H8.8z"/>
<circle class="st0" cx="13.1" cy="8.7" r="1.4"/>
<line class="st0" x1="3.9" y1="16.7" x2="16.8" y2="16.7"/>
<path class="st4" d="M20.5,6.6c0.7,0.2,1.2,1,1.2,2.1c0,0.9-0.4,1.7-1,2"/>
<path class="st4" d="M24.5,6.6c0.7,0.2,1.2,1,1.2,2.1c0,0.9-0.4,1.7-1,2"/>
<path class="st4" d="M24.5,10.7c0.7,0.2,1.2,1,1.2,2.1c0,0.9-0.4,1.7-1,2"/>
<path class="st4" d="M24.5,2.5c0.7,0.2,1.2,1,1.2,2.1c0,0.9-0.4,1.7-1,2"/>
<path class="st4" d="M29.1,4.1c0.7,0.2,1.2,1,1.2,2.1c0,0.9-0.4,1.7-1,2"/>
<path class="st4" d="M29.1,8.1c0.7,0.2,1.2,1,1.2,2.1c0,0.9-0.4,1.7-1,2"/>
<path class="st4" d="M29.1,0c0.7,0.2,1.2,1,1.2,2.1c0,0.9-0.4,1.7-1,2"/>
<path class="st4" d="M33.4,12c0.7,0.2,1.2,1,1.2,2.1c0,0.9-0.4,1.7-1,2"/>
<path class="st4" d="M35.2,2.3c0.7,0.2,1.2,1,1.2,2.1c0,0.9-0.4,1.7-1,2"/>
<path class="st4" d="M33.4,7.9c0.7,0.2,1.2,1,1.2,2.1c0,0.9-0.4,1.7-1,2"/>
<path class="st5" d="M46.5,35c0,0-4.5,3.9-10.1,3.9S26.2,35,26.2,35s4.5-3.9,10.1-3.9S46.5,35,46.5,35z"/>
<g>
	<path class="st6" d="M36.4,31.9c1.7,0,3.1,1.4,3.1,3.1S38,38,36.4,38s-3.1-1.4-3.1-3.1S34.7,31.9,36.4,31.9 M36.4,31.2
		c-2.1,0-3.8,1.7-3.8,3.8c0,2.1,1.7,3.8,3.8,3.8s3.8-1.7,3.8-3.8C40.1,32.9,38.4,31.2,36.4,31.2L36.4,31.2z"/>
</g>
<g>
	<path class="st6" d="M36.4,33.7c0.7,0,1.2,0.6,1.2,1.2s-0.6,1.2-1.2,1.2s-1.2-0.6-1.2-1.2S35.7,33.7,36.4,33.7 M36.4,33.1
		c-1,0-1.9,0.8-1.9,1.9s0.8,1.9,1.9,1.9s1.9-0.8,1.9-1.9S37.4,33.1,36.4,33.1L36.4,33.1z"/>
</g>
</svg>
